<?xml version="1.0" standalone="no"?>
<!DOCTYPE svg PUBLIC "-//W3C//DTD SVG 20010904//EN"
 "http://www.w3.org/TR/2001/REC-SVG-20010904/DTD/svg10.dtd">
<svg version="1.0" xmlns="http://www.w3.org/2000/svg"
 width="507.000000pt" height="507.000000pt" viewBox="0 0 507.000000 507.000000"
 preserveAspectRatio="xMidYMid meet">
<metadata>
Created by potrace 1.11, written by Peter Selinger 2001-2013
</metadata>
<g transform="translate(0.000000,507.000000) scale(0.100000,-0.100000)"
fill="#000000" stroke="none">
<path d="M2561 4733 c-15 -53 -31 -295 -31 -458 0 -163 16 -405 31 -458 10
-37 12 -39 22 -22 6 11 11 43 11 72 1 29 4 53 8 53 9 0 11 72 12 350 1 221 -2
305 -15 404 -13 94 -24 112 -38 59z"/>
<path d="M1870 4462 c0 -30 196 -256 212 -246 6 4 8 2 4 -4 -10 -16 281 -303
389 -383 47 -35 48 -36 26 -42 -12 -3 -19 -2 -16 3 22 35 -756 35 -888 -1
-154 -41 329 -71 768 -47 104 6 180 21 191 39 24 39 -407 495 -610 646 -57 42
-76 51 -76 35z"/>
<path d="M3219 4439 c-61 -44 -99 -81 -93 -90 3 -5 -1 -6 -8 -4 -18 7 -322
-291 -312 -306 4 -7 3 -9 -3 -6 -13 8 -46 -27 -36 -38 5 -4 3 -5 -3 -2 -18 10
-174 -178 -174 -209 0 -22 41 -30 230 -44 308 -23 813 5 748 41 -67 37 -766
49 -917 15 -26 -6 -26 -6 4 16 17 12 47 39 67 59 21 20 39 34 41 32 9 -8 357
348 351 359 -4 6 -3 8 3 5 13 -8 85 77 75 88 -4 5 -2 5 4 2 7 -4 27 15 48 46
54 78 47 87 -25 36z"/>
<path d="M1573 3606 c-89 -29 -176 -107 -216 -194 -31 -67 -31 -207 0 -274 30
-66 105 -143 172 -175 49 -24 68 -28 146 -28 78 0 97 4 146 28 67 32 142 109
172 175 31 67 31 207 0 274 -30 66 -105 143 -170 175 -66 32 -183 41 -250 19z"/>
<path d="M2473 3606 c-89 -29 -176 -107 -216 -194 -31 -67 -31 -207 0 -274 30
-66 105 -143 172 -175 49 -24 68 -28 146 -28 78 0 97 4 146 28 67 32 142 109
172 175 31 67 31 207 0 274 -30 66 -105 143 -170 175 -66 32 -183 41 -250 19z"/>
<path d="M3373 3606 c-89 -29 -176 -107 -216 -194 -31 -67 -31 -207 0 -274 30
-66 105 -143 172 -175 49 -24 68 -28 146 -28 78 0 97 4 146 28 67 32 142 109
172 175 31 67 31 207 0 274 -30 66 -105 143 -170 175 -66 32 -183 41 -250 19z"/>
<path d="M2111 3434 c0 -11 3 -14 6 -6 3 7 2 16 -1 19 -3 4 -6 -2 -5 -13z"/>
<path d="M3022 3420 c0 -14 2 -19 5 -12 2 6 2 18 0 25 -3 6 -5 1 -5 -13z"/>
<path d="M2102 3386 c2 -15 8 -26 13 -26 15 0 12 43 -3 48 -10 3 -13 -4 -10
-22z m15 -8 c-3 -8 -6 -5 -6 6 -1 11 2 17 5 13 3 -3 4 -12 1 -19z"/>
<path d="M3010 3379 c0 -5 6 -7 13 -3 10 6 10 4 0 -7 -16 -16 -17 -49 -2 -49
8 0 8 -4 2 -12 -5 -7 -9 -57 -8 -111 1 -78 -2 -104 -17 -127 -10 -17 -23 -30
-30 -30 -8 0 -5 5 5 11 9 5 17 15 17 22 0 7 -4 6 -10 -3 -5 -8 -10 -11 -10 -6
0 5 -9 -3 -21 -18 -12 -15 -21 -42 -22 -64 0 -20 -7 -43 -14 -50 -7 -7 -13
-11 -13 -7 0 3 -15 -5 -33 -19 -19 -14 -37 -23 -40 -19 -4 3 -7 0 -7 -7 0 -7
-3 -11 -6 -7 -7 6 -85 -39 -96 -57 -5 -6 -8 -7 -8 -1 0 6 -10 -1 -21 -15 -11
-14 -19 -20 -17 -15 2 6 -6 20 -19 32 -21 20 -27 21 -24 0 1 -4 -10 -13 -24
-19 -14 -6 -25 -15 -25 -20 0 -5 4 -7 9 -3 18 10 21 -13 4 -26 -10 -8 -14 -9
-10 -2 4 6 3 14 -3 18 -16 10 -12 23 13 37 24 14 35 53 12 44 -8 -3 -16 0 -18
7 -3 9 -7 9 -17 0 -7 -6 -18 -9 -25 -7 -18 7 -30 -16 -15 -29 10 -10 11 -8 6
8 -6 16 -5 18 5 8 9 -9 10 -16 2 -24 -7 -7 -15 -6 -26 5 -13 13 -17 14 -24 3
-10 -17 -43 -30 -43 -17 0 5 -18 21 -40 35 -60 38 -150 85 -150 79 0 -3 -11 7
-24 21 -14 15 -27 26 -31 25 -4 -1 -9 1 -11 4 -2 3 -1 4 2 2 13 -10 31 20 27
44 -2 13 -6 26 -8 28 -6 6 -25 -8 -25 -19 0 -6 5 -7 10 -4 6 3 10 1 10 -4 0
-19 -19 -12 -31 10 -6 12 -7 19 -2 16 4 -3 13 1 20 8 10 10 9 16 -4 27 -9 7
-14 8 -10 2 4 -7 0 -15 -9 -18 -21 -8 -24 -8 -24 5 0 5 5 7 10 4 6 -3 10 1 10
9 0 21 -17 20 -29 -1 -9 -16 -10 -15 -8 7 1 16 -4 25 -15 28 -13 2 -16 -1 -12
-13 5 -11 2 -16 -7 -14 -20 4 -61 -20 -54 -32 4 -5 1 -9 -4 -9 -6 0 -11 -4
-11 -10 0 -5 7 -7 16 -3 9 3 13 12 9 22 -5 13 -4 14 7 3 11 -11 10 -16 -4 -26
-12 -9 -14 -16 -8 -24 7 -9 7 -9 -2 -2 -18 15 -27 12 -23 -7 2 -10 4 -23 4
-29 1 -14 50 -64 63 -64 5 0 6 5 2 12 -4 6 -3 8 4 4 5 -3 13 0 16 6 3 7 4 4 1
-8 -4 -14 0 -21 10 -21 8 0 15 4 15 9 0 5 5 6 11 2 6 -3 25 4 41 16 17 13 28
18 25 13 -4 -6 11 -18 33 -28 22 -10 40 -23 40 -29 0 -6 5 -4 10 4 8 12 10 12
10 1 0 -14 28 -40 43 -41 5 0 5 6 2 13 -4 6 1 3 10 -8 9 -11 21 -19 26 -18 5
2 9 -1 9 -7 0 -5 8 -7 18 -3 9 3 13 2 9 -2 -4 -5 9 -19 30 -32 21 -13 32 -23
26 -23 -7 0 -13 -5 -13 -11 0 -5 5 -7 11 -3 7 4 10 1 7 -7 -6 -16 18 -68 32
-70 6 -1 15 -3 20 -4 6 -1 14 -3 19 -4 5 0 8 -39 6 -86 -2 -59 0 -85 8 -85 9
0 9 -2 1 -8 -14 -9 -13 -162 1 -162 5 0 10 18 11 40 0 22 -3 40 -8 40 -4 0 -8
5 -8 11 0 5 5 7 10 4 6 -3 10 3 10 15 0 14 -4 19 -12 14 -10 -6 -10 -4 0 7 15
16 16 49 1 49 -8 0 -8 4 -2 13 6 6 9 39 8 71 -1 35 3 70 11 85 12 23 14 23 15
6 0 -11 3 -14 6 -7 2 6 8 10 13 7 4 -3 14 3 21 12 12 14 12 16 -1 11 -8 -3
-28 1 -45 8 -16 7 -24 13 -17 14 7 0 21 -4 30 -9 9 -5 26 -5 37 0 13 5 15 8 5
9 -11 0 -10 4 5 16 14 11 17 17 8 22 -8 5 -1 14 22 26 19 11 35 23 35 28 0 4
3 7 8 6 17 -5 52 15 52 29 0 9 6 13 15 9 8 -3 15 0 15 6 0 6 3 9 6 6 5 -6 60
26 90 51 7 6 15 7 20 3 4 -4 4 0 0 8 -4 8 1 5 10 -7 18 -25 36 -31 28 -9 -7
19 24 28 34 10 8 -14 10 -14 21 0 8 9 17 16 22 16 4 0 -2 -10 -14 -23 -21 -21
-22 -22 -33 -3 -7 11 -14 15 -18 8 -3 -6 1 -18 10 -26 18 -19 49 -22 38 -4 -5
8 -2 9 10 5 25 -10 57 10 49 30 -6 15 -5 15 16 1 13 -9 30 -14 38 -11 8 3 13
0 11 -8 -2 -8 4 -13 15 -13 9 1 17 -2 17 -8 0 -5 5 -6 10 -3 6 3 10 -1 10 -9
0 -14 12 -20 33 -17 4 0 7 -3 7 -9 0 -5 7 -10 15 -10 8 0 15 -5 15 -11 0 -5 5
-7 10 -4 6 3 10 2 10 -4 0 -6 7 -7 17 -4 10 4 14 2 10 -4 -7 -10 19 -28 36
-25 4 1 7 -2 7 -7 0 -9 25 -21 43 -21 4 1 15 -6 23 -15 9 -8 21 -15 27 -15 6
0 0 8 -13 17 -14 10 -28 17 -32 15 -5 -1 -8 3 -8 9 0 5 -4 8 -9 5 -5 -3 -11 1
-15 9 -3 8 -15 15 -26 15 -12 0 -19 4 -16 8 5 8 -56 43 -71 41 -3 0 -11 7 -16
16 -8 14 -11 15 -18 4 -7 -12 -9 -11 -9 1 0 8 -27 30 -61 48 -41 23 -58 37
-52 45 17 22 8 39 -27 58 -19 11 -28 19 -19 19 8 0 20 -5 27 -12 25 -25 21 0
-4 28 l-27 28 -10 -24 c-6 -14 -9 -29 -8 -35 2 -5 -1 -6 -5 -2 -11 11 -14 38
-3 31 5 -3 9 2 9 11 0 9 -4 14 -8 11 -4 -2 -7 54 -7 125 1 86 -2 129 -9 129
-7 0 -8 3 -1 8 17 12 18 52 1 52 -9 0 -16 -5 -16 -11z m-920 -309 c0 -5 -5
-10 -11 -10 -5 0 -7 5 -4 10 3 6 8 10 11 10 2 0 4 -4 4 -10z m17 -30 c-1 -12
-5 -16 -10 -11 -5 5 -6 14 -3 20 11 16 15 13 13 -9z m57 -16 c3 -8 2 -12 -4
-9 -6 3 -10 10 -10 16 0 14 7 11 14 -7z m848 -2 c-10 -3 -10 -7 -2 -17 8 -10
8 -15 -1 -21 -7 -4 -9 -3 -5 4 3 6 -2 15 -11 21 -11 6 -13 11 -5 11 7 0 10 4
7 10 -4 6 1 7 11 3 12 -4 14 -8 6 -11z m-872 -7 c7 -9 8 -15 2 -15 -5 0 -12 7
-16 15 -3 8 -4 15 -2 15 2 0 9 -7 16 -15z m827 9 c-3 -3 -12 -4 -19 -1 -8 3
-5 6 6 6 11 1 17 -2 13 -5z m-874 -18 c4 -10 1 -13 -9 -9 -15 6 -19 23 -5 23
5 0 11 -7 14 -14z m962 -10 c-17 -12 -18 -16 -5 -32 14 -17 13 -18 -2 -6 -16
13 -22 56 -7 46 4 -2 11 1 14 7 4 5 10 8 13 5 3 -4 -3 -12 -13 -20z m-87 -12
c0 -17 -3 -22 -8 -13 -5 6 -6 18 -3 26 8 19 11 16 11 -13z m113 -1 c-12 -20
-14 -14 -5 12 4 9 9 14 11 11 3 -2 0 -13 -6 -23z m-891 6 c12 -8 10 -9 -9 -4
-16 5 -21 4 -17 -4 4 -6 3 -19 -3 -28 -8 -15 -9 -12 -6 12 2 17 4 31 4 33 2 5
17 1 31 -9z m916 -15 c-4 -9 -9 -15 -11 -12 -3 3 -3 13 1 22 4 9 9 15 11 12 3
-3 3 -13 -1 -22z m-1026 11 c0 -2 -10 -9 -22 -15 -22 -11 -22 -10 -4 4 21 17
26 19 26 11z m868 -30 c-3 -3 -9 2 -12 12 -6 14 -5 15 5 6 7 -7 10 -15 7 -18z
m-842 4 c7 -13 -13 -29 -36 -28 -8 0 -4 5 10 10 20 8 22 12 10 19 -9 6 -10 10
-3 10 6 0 15 -5 19 -11z m924 -10 c0 -5 -4 -9 -10 -9 -5 0 -10 5 -10 11 0 5
-5 7 -12 3 -7 -4 -8 -3 -4 4 7 12 36 5 36 -9z m-846 -15 c3 -8 2 -12 -4 -9 -6
3 -10 10 -10 16 0 14 7 11 14 -7z m-18 -21 c-6 -6 -36 9 -36 18 0 5 9 4 20 -3
10 -7 18 -14 16 -15z m907 -4 c-8 -8 -13 -7 -18 2 -5 8 -4 10 3 5 7 -4 12 -2
12 5 0 7 3 9 7 6 4 -4 2 -12 -4 -18z m-478 -88 c-6 -5 -25 10 -25 20 0 5 6 4
14 -3 8 -7 12 -15 11 -17z m-34 -28 c-12 -20 -14 -14 -5 12 4 9 9 14 11 11 3
-2 0 -13 -6 -23z m-51 3 c0 -3 -4 -8 -10 -11 -5 -3 -10 -1 -10 4 0 6 5 11 10
11 6 0 10 -2 10 -4z m137 -3 c-9 -2 -15 -9 -12 -14 3 -5 -1 -6 -10 -2 -13 5
-14 7 -3 14 7 5 20 8 28 8 11 -1 10 -3 -3 -6z m-83 -36 c3 4 6 1 6 -5 0 -18
-18 -14 -29 6 -6 9 -11 13 -11 9 0 -5 -5 -5 -10 -2 -6 4 -7 11 -4 17 5 7 13 4
24 -10 10 -12 20 -18 24 -15z m-17 -40 c-2 -6 -9 -12 -15 -13 -7 -1 -8 0 -2 3
16 8 1 23 -18 17 -14 -5 -14 -4 -3 4 17 12 43 4 38 -11z m20 -32 c0 -8 -4 -12
-9 -9 -4 3 -8 9 -8 15 0 5 4 9 8 9 5 0 9 -7 9 -15z m-32 -5 c3 -6 -1 -7 -9 -4
-18 7 -21 14 -7 14 6 0 13 -4 16 -10z"/>
<path d="M2103 3296 c-1 -29 3 -54 10 -58 7 -4 8 -8 2 -8 -16 0 -18 -62 -3
-72 10 -6 10 -8 1 -8 -7 0 -13 -7 -13 -15 0 -8 6 -15 14 -15 17 0 18 41 1 52
-6 5 -5 8 4 8 11 0 11 3 0 17 -8 9 -9 14 -3 10 14 -8 13 51 0 72 -6 9 -5 12 0
8 6 -3 10 9 11 27 1 19 -4 33 -11 33 -8 0 -13 -19 -13 -51z"/>
<path d="M1990 2930 c-11 -11 -22 -20 -25 -20 -3 0 -9 0 -15 0 -5 0 -10 -8
-10 -17 0 -15 -2 -16 -10 -3 -8 12 -10 12 -11 -5 0 -11 -3 -15 -5 -8 -4 8 -22
2 -57 -20 -29 -17 -54 -34 -57 -37 -3 -4 -29 -20 -57 -36 -54 -29 -74 -52 -28
-31 14 7 25 16 25 20 0 5 5 5 10 2 6 -3 10 -1 10 5 0 6 4 9 8 6 5 -3 18 3 29
14 12 10 24 16 27 13 3 -4 6 -1 6 5 0 7 3 11 8 11 20 -3 32 2 32 16 0 8 5 15
11 15 5 0 7 -6 4 -12 -4 -7 -1 -6 7 2 7 8 20 16 28 18 8 2 20 8 25 15 6 7 17
13 25 15 8 2 22 9 30 16 8 8 22 15 29 18 12 3 12 6 -2 11 -11 4 -25 -1 -37
-13z"/>
<path d="M2033 2806 c-89 -29 -176 -107 -216 -194 -31 -67 -31 -207 0 -274 30
-66 105 -143 172 -175 49 -24 68 -28 146 -28 78 0 97 4 146 28 67 32 142 109
172 175 31 67 31 207 0 274 -30 66 -105 143 -170 175 -66 32 -183 41 -250 19z"/>
<path d="M2923 2806 c-89 -29 -176 -107 -216 -194 -31 -67 -31 -207 0 -274 30
-66 105 -143 172 -175 49 -24 68 -28 146 -28 78 0 97 4 146 28 67 32 142 109
172 175 31 67 31 207 0 274 -30 66 -105 143 -170 175 -66 32 -183 41 -250 19z"/>
<path d="M2569 2300 c-1 -3 -2 -16 -3 -30 -2 -31 -12 -47 -38 -61 -12 -7 -18
-7 -14 -1 3 6 0 13 -6 16 -7 3 -3 3 9 1 12 -3 25 0 29 7 11 18 12 48 2 48 -4
0 -8 -4 -8 -10 0 -5 -6 -7 -14 -4 -18 7 -49 -37 -36 -50 13 -13 13 -36 0 -36
-5 0 -6 7 -3 17 4 11 3 14 -5 9 -14 -9 -16 -36 -2 -36 5 0 7 -8 4 -17 -3 -10
8 -2 26 17 17 19 29 29 25 23 -6 -12 7 -18 28 -14 5 1 6 -3 2 -9 -4 -7 -13 -7
-26 1 -17 9 -20 7 -17 -8 2 -10 -2 -17 -9 -16 -6 2 -21 -9 -32 -24 -12 -14
-21 -23 -21 -19 0 12 -125 -58 -167 -94 -7 -5 -17 -10 -23 -10 -6 0 -9 -4 -5
-9 3 -6 -3 -9 -12 -8 -20 1 -73 -31 -73 -44 0 -5 7 -6 15 -3 8 4 15 10 15 15
0 5 3 8 8 7 14 -3 61 21 82 42 11 11 25 18 30 15 6 -4 10 -1 10 5 0 6 5 8 10
5 6 -3 10 -2 10 4 0 5 10 13 22 17 12 3 43 20 69 36 46 28 49 28 83 14 20 -8
36 -11 36 -6 0 4 -6 11 -12 13 -10 4 -10 8 1 15 7 5 11 15 7 21 -5 7 -1 9 9 5
11 -5 13 -10 5 -19 -16 -19 -2 -44 21 -38 10 3 19 9 19 14 0 5 -7 6 -15 3 -8
-4 -15 -1 -15 7 0 7 3 9 7 6 3 -4 12 -2 19 4 9 7 19 7 33 -1 18 -9 21 -8 21
10 0 14 -4 19 -12 14 -7 -5 -8 -3 -3 6 6 9 4 12 -7 8 -8 -4 -15 0 -15 7 0 10
5 11 19 4 13 -7 20 -6 24 4 8 22 -21 84 -46 97 -15 8 -20 8 -16 1 13 -20 -5
-12 -25 12 -10 12 -19 20 -20 17z m-29 -55 c0 -2 -9 -3 -19 -2 -11 0 -18 5
-15 9 4 6 34 0 34 -7z m88 -26 c2 -8 -2 -6 -8 4 -6 9 -18 17 -25 17 -8 0 -15
5 -15 11 0 16 43 -13 48 -32z m16 -17 c-17 -16 -17 -16 -4 1 10 14 10 21 2 29
-7 7 -12 17 -12 22 0 6 7 0 16 -13 15 -21 15 -24 -2 -39z m-57 -13 c2 -18 1
-20 -6 -9 -5 8 -7 18 -5 22 3 4 0 8 -5 8 -6 0 -11 -5 -11 -12 0 -6 -3 -9 -6
-5 -9 9 6 29 19 24 5 -1 12 -14 14 -28z m28 -6 c-4 -10 -7 -27 -7 -38 1 -15
-1 -17 -8 -5 -5 8 -5 21 0 31 5 9 6 19 3 23 -3 3 -1 6 6 6 9 0 11 -6 6 -17z
m55 7 c0 -5 -5 -10 -11 -10 -5 0 -7 5 -4 10 3 6 8 10 11 10 2 0 4 -4 4 -10z
m-120 -55 c0 -2 -10 -9 -22 -15 -22 -11 -22 -10 -4 4 21 17 26 19 26 11z
m-135 -65 c-3 -5 -12 -10 -18 -10 -7 0 -6 4 3 10 19 12 23 12 15 0z"/>
<path d="M2680 2116 c0 -12 5 -16 15 -12 9 3 15 0 15 -9 0 -15 11 -19 39 -16
7 2 10 -2 7 -8 -8 -12 24 -30 42 -24 7 3 12 1 11 -4 -3 -20 2 -27 11 -13 8 12
10 12 10 -5 0 -17 2 -17 10 -5 8 13 10 12 10 -2 0 -10 5 -18 10 -18 6 0 12 0
15 0 3 0 14 -9 26 -21 11 -11 27 -18 35 -15 8 3 14 1 14 -4 0 -5 14 -16 30
-25 17 -9 30 -11 30 -5 0 5 -7 10 -15 10 -8 0 -15 5 -15 12 0 6 -3 8 -7 5 -3
-4 -11 0 -17 8 -6 7 -17 15 -25 17 -8 2 -23 11 -33 21 -10 10 -23 15 -28 12
-6 -4 -10 -2 -10 4 0 13 -60 46 -77 43 -7 -2 -13 2 -13 7 0 10 -53 42 -66 40
-4 0 -11 5 -15 13 -7 10 -9 8 -9 -6z"/>
<path d="M2625 2110 c3 -5 8 -10 11 -10 2 0 4 5 4 10 0 6 -5 10 -11 10 -5 0
-7 -4 -4 -10z"/>
<path d="M2473 2016 c-89 -29 -176 -107 -216 -194 -31 -67 -31 -207 0 -274 30
-66 105 -143 172 -175 49 -24 68 -28 146 -28 78 0 97 4 146 28 67 32 142 109
172 175 31 67 31 207 0 274 -30 66 -105 143 -170 175 -66 32 -183 41 -250 19z"/>
<path d="M2155 1930 c-3 -5 -1 -10 4 -10 6 0 11 5 11 10 0 6 -2 10 -4 10 -3 0
-8 -4 -11 -10z"/>
<path d="M600 1049 c-30 -11 -60 -57 -60 -92 0 -46 33 -72 115 -92 105 -24
135 -73 79 -126 -21 -20 -36 -24 -81 -23 -48 0 -59 4 -79 28 -13 15 -24 34
-24 42 0 34 -24 5 -25 -29 -2 -44 11 -69 23 -49 7 10 14 10 38 -3 65 -34 166
-7 190 51 29 69 -1 107 -106 134 -82 21 -102 36 -102 75 0 36 30 64 75 72 45
7 83 -15 101 -59 15 -36 23 -28 27 27 4 38 3 40 -26 42 -17 2 -50 5 -75 7 -25
3 -56 1 -70 -5z"/>
<path d="M2901 1049 c-28 -11 -68 -54 -82 -87 -12 -30 -12 -134 0 -165 15 -39
80 -96 117 -103 49 -9 99 3 134 32 46 39 38 62 -8 24 -103 -83 -222 -21 -227
118 -3 100 41 164 118 168 52 3 104 -26 113 -62 7 -28 23 -32 25 -6 3 30 -1
76 -7 81 -3 3 -9 0 -13 -7 -6 -10 -15 -9 -44 3 -41 17 -90 19 -126 4z"/>
<path d="M4404 1045 c-34 -17 -54 -51 -54 -90 0 -30 38 -73 70 -79 14 -3 39
-8 55 -11 91 -18 122 -80 66 -128 -26 -21 -40 -25 -82 -23 -42 2 -56 7 -75 30
-13 15 -24 34 -24 42 0 34 -24 5 -25 -29 -2 -44 11 -69 23 -49 7 10 14 10 38
-3 65 -34 160 -9 188 49 32 69 2 109 -104 136 -40 10 -80 25 -88 34 -23 23
-18 67 12 93 49 42 127 24 148 -34 13 -36 25 -33 28 7 4 50 1 57 -27 58 -16 1
-48 4 -73 7 -31 4 -55 0 -76 -10z"/>
<path d="M1260 1040 c0 -5 8 -10 18 -10 15 0 17 -13 15 -147 -1 -178 0 -163
-18 -163 -8 0 -15 -4 -15 -10 0 -5 23 -10 51 -10 31 0 48 4 44 10 -3 6 -13 10
-21 10 -11 0 -14 26 -14 148 l0 147 93 -157 c123 -210 127 -210 127 7 0 160 1
165 21 165 11 0 17 5 14 10 -8 13 -95 13 -95 1 0 -5 8 -11 17 -13 15 -3 17
-20 17 -145 1 -167 10 -170 -109 33 -75 130 -79 134 -111 134 -19 0 -34 -4
-34 -10z"/>
<path d="M2131 933 c-23 -65 -50 -138 -59 -161 -10 -28 -24 -47 -39 -53 -36
-13 -28 -19 27 -19 28 0 50 5 50 10 0 6 -6 10 -14 10 -12 0 -12 8 2 50 l16 51
84 -3 84 -3 14 -40 c17 -51 17 -55 -1 -55 -8 0 -15 -4 -15 -10 0 -5 23 -10 50
-10 28 0 50 5 50 10 0 6 -9 10 -19 10 -15 0 -25 15 -41 58 -91 247 -103 272
-124 272 -18 0 -28 -18 -65 -117z m102 12 c14 -38 28 -78 32 -87 6 -16 0 -18
-64 -18 -39 0 -71 4 -71 9 0 22 64 181 70 174 4 -4 19 -39 33 -78z"/>
<path d="M3550 1040 c0 -5 9 -10 19 -10 18 0 19 -9 20 -155 1 -148 0 -155 -19
-155 -11 0 -20 -4 -20 -10 0 -5 23 -10 50 -10 28 0 50 5 50 10 0 6 -8 10 -18
10 -16 0 -18 8 -18 59 1 52 4 62 27 80 l27 21 56 -75 c31 -41 56 -77 56 -80 0
-3 -7 -5 -15 -5 -8 0 -15 -4 -15 -10 0 -5 25 -10 55 -10 30 0 55 5 55 10 0 6
-8 10 -18 10 -10 0 -45 37 -86 92 l-69 91 69 63 c38 35 77 63 87 64 9 0 17 5
17 10 0 6 -26 10 -57 10 -51 -1 -56 -2 -40 -14 16 -12 11 -19 -59 -82 -42 -38
-79 -70 -83 -72 -4 -1 -7 31 -7 73 0 65 3 75 18 75 10 0 18 5 18 10 0 6 -22
10 -50 10 -27 0 -50 -4 -50 -10z"/>
<path d="M975 945 c-14 -13 -25 -36 -25 -50 0 -33 41 -75 73 -75 38 0 77 36
77 71 0 37 -40 79 -75 79 -14 0 -37 -11 -50 -25z"/>
<path d="M1755 945 c-14 -13 -25 -36 -25 -50 0 -33 41 -75 73 -75 38 0 77 36
77 71 0 37 -40 79 -75 79 -14 0 -37 -11 -50 -25z"/>
<path d="M2535 945 c-14 -13 -25 -36 -25 -50 0 -14 11 -37 25 -50 50 -51 125
-18 125 56 0 28 -44 69 -75 69 -14 0 -37 -11 -50 -25z"/>
<path d="M3275 945 c-14 -13 -25 -36 -25 -50 0 -33 41 -75 73 -75 38 0 77 36
77 71 0 37 -40 79 -75 79 -14 0 -37 -11 -50 -25z"/>
<path d="M4045 945 c-14 -13 -25 -36 -25 -50 0 -33 42 -75 75 -75 35 0 75 42
75 78 0 36 -37 72 -74 72 -15 0 -37 -10 -51 -25z"/>
</g>
</svg>
